<?xml version="1.0" standalone="no"?><!DOCTYPE svg PUBLIC "-//W3C//DTD SVG 1.1//EN" "http://www.w3.org/Graphics/SVG/1.1/DTD/svg11.dtd"><svg t="1718010942734" class="icon" viewBox="0 0 1024 1024" version="1.1" xmlns="http://www.w3.org/2000/svg" p-id="13914" xmlns:xlink="http://www.w3.org/1999/xlink" width="300" height="300"><path d="M48.924 1002.951a72.476 72.476 0 0 1-20.48-50.631V98.36c0-39.65 31.858-71.622 69.974-71.622H589.71v71.11s-480.54 0.4-491.292 0.57c-0.228 284.558-0.228 569.23 0 853.845 5.86 0.228 163.385 0.285 334.222 0.341 203.435 0 425.756-0.113 432.868 0-0.057-10.467 0.17-488.675 0.17-488.675h69.803v488.675c0 39.31-31.858 71.396-69.917 71.396H98.361a68.836 68.836 0 0 1-49.38-21.049z m777.33-981.447C839.34 7.964 857.088 0.341 875.634 0.284c18.602-0.113 36.409 7.396 49.55 20.765l49.493 50.517a72.647 72.647 0 0 1-0.398 101.035L559.445 596.139h-147.91V444.814l414.72-423.367zM481.11 474.454V524.8h60.644c21.618-33.564 35.442-47.73 175.616-190.92l207.36-211.74c0.284-0.17-48.981-50.801-48.981-50.801L474.795 480.996l6.371-6.543zM167.993 703.43c0-19.683 15.019-35.612 34.702-35.612h279.381c19.229 0 34.76 16.497 34.76 35.612a34.816 34.816 0 0 1-34.703 35.613H202.695a35.556 35.556 0 0 1-34.759-35.613z m0 142.45c0-19.627 15.474-35.613 35.555-35.613H760.32c19.4 0 35.271 15.816 35.612 35.613a35.328 35.328 0 0 1-35.612 35.612H203.548a35.954 35.954 0 0 1-35.555-35.612z" fill="#2A333A" p-id="13915"></path><path d="M750.876 123.108a34.02 34.02 0 0 1 48.925-0.399l66.162 67.584a36.295 36.295 0 0 1-0.285 50.063 34.076 34.076 0 0 1-49.038 0.284l-66.105-67.527a36.295 36.295 0 0 1 0.341-50.062zM516.836 97.849h139.548V26.624H516.836v71.225z m348.842 427.463h69.803V382.805h-69.803v142.507z" fill="#2A333A" p-id="13916"></path></svg>