<?xml version="1.0" standalone="no"?><!DOCTYPE svg PUBLIC "-//W3C//DTD SVG 1.1//EN" "http://www.w3.org/Graphics/SVG/1.1/DTD/svg11.dtd"><svg t="1718010010661" class="icon" viewBox="0 0 1288 1024" version="1.1" xmlns="http://www.w3.org/2000/svg" p-id="4963" xmlns:xlink="http://www.w3.org/1999/xlink" width="377.34375" height="300"><path d="M1173.39 688.774c-21.216 0-35.365 14.134-35.365 35.35v63.634c0 21.216 14.149 35.35 35.365 35.35s35.35-14.134 35.35-35.35v-63.59c0-21.26-21.216-35.394-35.35-35.394z" p-id="4964"></path><path d="M1265.961 276.798L657.53 0.887 622.848 0 26.732 290.947A48.932 48.932 0 0 0 0.005 335.24c0 21.275 12.07 37.023 29.083 38.186l197.183 81.608v346.859c0 42.65 19.966 74.743 37.939 98.635C335.55 979.052 474.844 1024 646.36 1024c103.536 0 205.443-20.358 286.468-57.28 30-11.996 71.021-33.343 96.207-66.89 17.377-23.165 37.343-55.258 37.343-97.908V433.527l71.588-33.242v168.289c0 21.216 14.149 35.365 35.365 35.365s35.35-14.15 35.35-35.365V367.45l50.154-23.267c13.902-6.95 23.136-19.95 25.884-30.871a12.171 12.171 0 0 0 3.257-5.817c2.618-10.848-9.394-24.371-22.016-30.697z m-619.6 259.784L282.62 382.632l-128.474-55.04 485.25-235.864 499.56 229.523-128.808 61.351z m329.38 120.128c-198.71 129.827-459.657 134.77-665.9 12.695V491.736l318.46 135.498 25.113 0.8L975.742 484.96z m-665.87 103.696a716.767 716.767 0 0 0 323.563 77.404 708.725 708.725 0 0 0 342.308-88.049v59.199c0 11.328-6.166 23.266-18.294 35.38l-1.454 1.759C922.39 899.903 789.246 940.4 646.26 940.4c-89.649 0-180.955-17.726-250.115-48.453-26.64-13.305-54.196-27.09-68.112-47.609-12.128-12.142-18.294-24.051-18.294-35.38z" p-id="4965"></path></svg>