<?xml version="1.0" standalone="no"?><!DOCTYPE svg PUBLIC "-//W3C//DTD SVG 1.1//EN" "http://www.w3.org/Graphics/SVG/1.1/DTD/svg11.dtd"><svg t="1716888203673" class="icon" viewBox="0 0 1024 1024" version="1.1" xmlns="http://www.w3.org/2000/svg" p-id="12548" xmlns:xlink="http://www.w3.org/1999/xlink" width="300" height="300"><path d="M227.555556 568.888889h113.777777v113.777778H227.555556zM227.555556 739.555556h113.777777v113.777777H227.555556zM455.111111 568.888889h113.777778v113.777778H455.111111zM455.111111 739.555556h113.777778v113.777777H455.111111zM682.666667 568.888889h113.777777v113.777778h-113.777777zM682.666667 739.555556h113.777777v113.777777h-113.777777z" fill="#171725" p-id="12549"></path><path d="M910.222222 113.777778h-170.666666V0h-56.888889v113.777778H341.333333V0H284.444444v113.777778H113.777778C51.2 113.777778 0 164.977778 0 227.555556v682.666666c0 62.577778 51.2 113.777778 113.777778 113.777778h796.444444c62.577778 0 113.777778-51.2 113.777778-113.777778V227.555556c0-62.577778-51.2-113.777778-113.777778-113.777778z m56.888889 796.444444c0 34.133333-22.755556 56.888889-56.888889 56.888889H113.777778c-34.133333 0-56.888889-22.755556-56.888889-56.888889V455.111111h910.222222v455.111111zM56.888889 398.222222V227.555556c0-34.133333 22.755556-56.888889 56.888889-56.888889h170.666666v113.777777h56.888889V170.666667h341.333334v113.777777h56.888889V170.666667h170.666666c34.133333 0 56.888889 22.755556 56.888889 56.888889v170.666666H56.888889z" fill="#171725" p-id="12550"></path></svg>