<?xml version="1.0" standalone="no"?><!DOCTYPE svg PUBLIC "-//W3C//DTD SVG 1.1//EN" "http://www.w3.org/Graphics/SVG/1.1/DTD/svg11.dtd"><svg t="1718010124536" class="icon" viewBox="0 0 1024 1024" version="1.1" xmlns="http://www.w3.org/2000/svg" p-id="6384" xmlns:xlink="http://www.w3.org/1999/xlink" width="300" height="300"><path d="M830.974139 637.649614a167.807021 167.807021 0 1 1-84.820838 312.659509 446.29073 446.29073 0 0 1-269.651761 73.044907 448.040053 448.040053 0 0 1-136.916534-28.927831l-11.775932-4.693306 30.933153-74.410232c38.399776 15.999907 79.487536 25.343852 121.983289 27.562506a366.077865 366.077865 0 0 0 206.548128-50.687705 167.807021 167.807021 0 0 1 143.657829-254.505182zM256.257492 199.465503L299.947904 267.091775a367.229858 367.229858 0 0 0-168.105686 289.960976c-1.450658 27.903837 0.255999 55.893007 5.077303 83.412846a167.807021 167.807021 0 1 1-75.092895 34.858464 447.698722 447.698722 0 0 1-10.36794-122.495286c7.253291-140.372514 79.999533-269.225096 196.478854-347.90197l8.319952-5.546635z m574.716647 518.738307a87.252824 87.252824 0 1 0 0 174.505649 87.252824 87.252824 0 0 0 0-174.505649z m-663.206798 0a87.252824 87.252824 0 1 0 0 174.505649 87.252824 87.252824 0 0 0 0-174.505649zM499.37074 0a167.807021 167.807021 0 0 1 167.593689 159.35907 448.594717 448.594717 0 0 1 280.105033 420.09355l-0.170666 9.471945-80.51153-2.559985a368.083186 368.083186 0 0 0-215.550743-346.323314A167.807021 167.807021 0 1 1 499.37074 0z m0 80.554197a87.252824 87.252824 0 1 0 0 174.505648 87.252824 87.252824 0 0 0 0-174.505648z" fill="#2c2c2c" p-id="6385"></path></svg>